inDegrees=yes
name=ik_lifting_orientations
DataType=double
version=3
OpenSimVersion=4.5-2024-01-10-34fd6af
endheader
time	pelvis_tilt	pelvis_list	pelvis_rotation	pelvis_tx	pelvis_ty	pelvis_tz	hip_flexion_r	hip_adduction_r	hip_rotation_r	knee_angle_r	knee_angle_r_beta	ankle_angle_r	subtalar_angle_r	mtp_angle_r	hip_flexion_l	hip_adduction_l	hip_rotation_l	knee_angle_l	knee_angle_l_beta	ankle_angle_l	subtalar_angle_l	mtp_angle_l	lumbar_extension	lumbar_bending	lumbar_rotation	arm_flex_r	arm_add_r	arm_rot_r	elbow_flex_r	pro_sup_r	wrist_flex_r	wrist_dev_r	arm_flex_l	arm_add_l	arm_rot_l	elbow_flex_l	pro_sup_l	wrist_flex_l	wrist_dev_l
2.49	0.8496335078126387	5.002644325089734	-123.4295136931364	0	0.9399999998679526	0	44.44530726428704	-10.08859559070516	0	59.14470690441701	1.0322698706091	-5.019495152789534	0	0	44.44530726428704	-10.08859559070516	0	59.14470690441701	1.0322698706091	-5.019495152789534	0	0	-0.3347119300346489	-0.6971675475552016	30.94792017580185	78.50977979930948	22.6024220559002	63.61102677619431	59.86550317201684	2.947210556078066	0	0	0	-11.45873738310963	0	87.08800262513195	2.947210556078066	0	0
2.5	0.8285715755504405	5.070642010508603	-122.7305320998085	0	0.9399999998679526	0	44.44549013956571	-10.08849378874696	0	59.14492869981824	1.032273741669117	-5.019465946770122	0	0	44.44549013956571	-10.08849378874696	0	59.14492869981824	1.032273741669117	-5.019465946770122	0	0	-0.5493158683773887	-0.8342881333780874	30.75869074044488	78.67659660150932	21.99721498340807	63.53355567461649	58.52379602378247	2.9465333702264	0	0	0	-11.45933649615597	0	87.08867166456437	2.9465333702264	0	0
2.51	0.8137048363657317	5.070755374432709	-122.2391556760726	0	0.9399999998679526	0	44.44574182680027	-10.0883530819698	0	59.14523271094708	1.032279047664278	-5.01942555471184	0	0	44.44574182680027	-10.0883530819698	0	59.14523271094708	1.032279047664278	-5.01942555471184	0	0	-0.9311376399591554	-1.065934946676515	30.25595046578991	78.99936679359791	21.96120065260484	63.32919022240354	57.59771549900538	2.945602753283871	0	0	0	-11.46015875724954	0	87.08959108618492	2.945602753283871	0	0
2.52	0.7913779235773952	5.07497134149275	-121.8597091583333	0	0.9399999998679526	0	44.44594557985061	-10.08823955478034	0	59.14547929286047	1.032283351330543	-5.01939299441437	0	0	44.44594557985061	-10.08823955478034	0	59.14547929286047	1.032283351330543	-5.01939299441437	0	0	-1.118058767884916	-1.133388780517959	30.05388348447629	79.19104976994984	22.05361003204276	62.83066648874556	56.32805353303346	2.944848751439924	0	0	0	-11.46082541576358	0	87.09033601747005	2.944848751439924	0	0
2.53	0.7757328967933639	5.268069177684074	-121.8646513637221	0	0.9399999998679526	0	44.44606837874205	-10.08817131070384	0	59.14562815723709	1.032285949504054	-5.019373433864659	0	0	44.44606837874205	-10.08817131070384	0	59.14562815723709	1.032285949504054	-5.019373433864659	0	0	-0.9648653261622543	-1.0064448700552	30.19357960069694	79.04116627067198	21.76112295743159	62.68488286213942	55.7646910129065	2.944394004021546	0	-1.347017302871753e-36	0	-11.4612277247517	0	87.09078529437066	2.944394004021546	0	-1.347017302871753e-36
2.54	0.8024155078748443	5.447477854379753	-122.040969697385	0	0.9399999998679526	0	44.44620954064935	-10.08809489437191	0	59.14580284583594	1.032288998395269	-5.019351643142528	0	0	44.44620954064935	-10.08809489437191	0	59.14580284583594	1.032288998395269	-5.019351643142528	0	0	-0.9998639273762959	-1.086520267341968	30.42138919396577	79.27080352748038	21.44897387257164	62.79376125016493	56.43585077475939	2.943867060087873	0	0	0	-11.46169709106435	0	87.09130589982213	2.943867060087873	0	0
2.55	0.8111499681014882	5.636653880111674	-122.4825741356281	0	0.9399999998679526	0	44.44635683326977	-10.08801704694638	0	59.14598836889613	1.032292236383508	-5.019329553071938	0	0	44.44635683326977	-10.08801704694638	0	59.14598836889613	1.032292236383508	-5.019329553071938	0	0	-0.8681687719836237	-1.041090585392827	30.87062356923556	79.41474268795751	21.57259713355008	62.78389451324947	56.46621039393365	2.943313388264999	0	0	0	-11.46219314797836	0	87.09185291215353	2.943313388264999	0	0
2.56	0.7953423229588806	5.716510422140499	-122.4656810049151	0	0.9399999998679526	0	44.4465340630633	-10.08791919741799	0	59.14620401829879	1.032296000175614	-5.019301555877782	0	0	44.4465340630633	-10.08791919741799	0	59.14620401829879	1.032296000175614	-5.019301555877782	0	0	-0.855330150054375	-1.015475432651601	30.86455220138212	79.65569289539209	22.32361475158409	62.50150439661177	55.29123456373801	2.94265601210423	0	0	0	-11.46277548452486	0	87.09250238035646	2.94265601210423	0	0
2.57	0.7824426528787426	5.768948222037229	-122.4239185830208	0	0.9399999998679526	0	44.44668492530651	-10.08783527570225	0	59.14638640635876	1.032299183447777	-5.019277512053406	0	0	44.44668492530651	-10.08783527570225	0	59.14638640635876	1.032299183447777	-5.019277512053406	0	0	-0.664842112621164	-0.8956563172090002	30.87494738942463	79.89980921696109	23.00102515226746	62.52399287544368	55.90677179961165	2.942097788185139	0	0	0	-11.46326895862717	0	87.09305388890559	2.942097788185139	0	0
2.58	0.7613933815894051	5.854511631481934	-122.3967837389151	0	0.9399999998679526	0	44.44681639564886	-10.08776284693238	0	59.14654648788619	1.032301977397502	-5.019256803984562	0	0	44.44681639564886	-10.08776284693238	0	59.14654648788619	1.032301977397502	-5.019256803984562	0	0	-0.6047666218498932	-0.7934611962813993	30.81130788730203	80.1531340634929	23.80079702147909	62.2105562271188	54.79431833854505	2.941609950188278	0	0	0	-11.46370123590538	0	87.09353585844445	2.941609950188278	0	0
2.59	0.7844549167802354	5.892112703840835	-122.5495174062012	0	0.9399999998679526	0	44.44705427241995	-10.0876308625396	0	59.14683436399891	1.032307001783507	-5.019219022075202	0	0	44.44705427241995	-10.0876308625396	0	59.14683436399891	1.032307001783507	-5.019219022075202	0	0	-0.4971352164571781	-0.8008890478146997	30.93431209629092	80.07222635314966	24.03132488885476	61.92652958510433	53.73580236655454	2.940729297107967	0	0	0	-11.46448005048545	0	87.09440591743312	2.940729297107967	0	0
2.6	0.761956308900776	5.815334371578664	-122.7963721394683	0	0.9399999998679526	0	44.44710469240058	-10.08760312692059	0	59.14689577031199	1.032308073525852	-5.019211097014789	0	0	44.44710469240058	-10.08760312692059	0	59.14689577031199	1.032308073525852	-5.019211097014789	0	0	-0.4312589248200381	-0.7374489287516695	31.05954559307335	80.10435131659838	24.54366417489459	61.91465578145746	54.09233164602313	2.940542167774469	0	1.935875121360123e-35	0	-11.4646458908491	0	87.09459079569643	2.940542167774469	0	1.935875121360123e-35
